<?xml version="1.0" standalone="no"?>
<svg xmlns:xlink="http://www.w3.org/1999/xlink" width="128" height="128" viewBox="0 0 24 24" xmlns="http://www.w3.org/2000/svg">

<g fill="none" fill-rule="evenodd" transform="translate(4.40625 2.0625)" id="element_f75e5c55">

<path d="m8.25974026.18366074 6.19480524 3.62593109c.420004.22996472.6830424.66740051.6883116 1.14467012v7.95785635c-.0067052.4768646-.2693441.9136361-.6883116 1.1446701l-9.87038966 5.7713308c-.15973236.0941434-.36583269.0420681-.46116883-.1165233-.0295172-.0500046-.04607527-.1065376-.04818182-.1645035v-3.5025535l-3.3864935-1.9877505c-.41896754-.231034-.68160648-.6678055-.68831169-1.1446701v-7.95785635c.00526926-.47726961.26830764-.9147054.68831169-1.14467012l6.19480519-3.62593109c.42592876-.24488099.95069462-.24488099 1.37662338 0z" fill="#aecbfa" fill-rule="nonzero" id="element_37bd56ae"/>

<g transform="translate(3.984375 4.03125)" id="element_8a71cdae">

<path d="m1.42851563 7.14257812c0-.39446437-.31979344-.71425781-.71425782-.71425781-.39446437 0-.71425781.31979344-.71425781.71425781v1.42851563c0 .39446438.31979344.71425781.71425781.71425781.39446438 0 .71425782-.31979343.71425782-.71425781z" fill="#185abc" id="element_e8188155"/>

<path d="m1.42851563 4.99980469c0-.39446438-.31979344-.71425782-.71425782-.71425782-.39446437 0-.71425781.31979344-.71425781.71425782 0 .39446437.31979344.71425781.71425781.71425781.39446438 0 .71425782-.31979344.71425782-.71425781z" fill="#4285f4" id="element_8454b612"/>

<path d="m4.28554687 4.99980469c0-.39446438-.31979343-.71425782-.71425781-.71425782-.39446437 0-.71425781.31979344-.71425781.71425782 0 .39446437.31979344.71425781.71425781.71425781.39446438 0 .71425781-.31979344.71425781-.71425781z" fill="#4285f4" id="element_0a0f19fb"/>

<path d="m4.28554687 2.85703125c0-.39446437-.31979343-.71425781-.71425781-.71425781-.39446437 0-.71425781.31979344-.71425781.71425781 0 .39446438.31979344.71425781.71425781.71425781.39446438 0 .71425781-.31979343.71425781-.71425781z" fill="#669df6" id="element_1daa5b6d"/>

<path d="m7.14257812.71425781c0-.39446437-.31979343-.71425781-.71425781-.71425781-.39446437 0-.71425781.31979344-.71425781.71425781 0 .39446438.31979344.71425782.71425781.71425782.39446438 0 .71425781-.31979344.71425781-.71425782z" fill="#669df6" id="element_16e458e2"/>

<path d="m7.14257812 4.99980469c0-.39446438-.31979343-.71425782-.71425781-.71425782-.39446437 0-.71425781.31979344-.71425781.71425782 0 .39446437.31979344.71425781.71425781.71425781.39446438 0 .71425781-.31979344.71425781-.71425781z" fill="#185abc" id="element_08d1477c"/>

<path d="m7.14257812 2.85703125c0-.39446437-.31979343-.71425781-.71425781-.71425781-.39446437 0-.71425781.31979344-.71425781.71425781 0 .39446438.31979344.71425781.71425781.71425781.39446438 0 .71425781-.31979343.71425781-.71425781z" fill="#4285f4" id="element_54e964cb"/>

<g fill="#185abc" id="element_613f11b7">

<path d="m2.85703125 7.14257812c0-.39446437.31979344-.71425781.71425781-.71425781.39446438 0 .71425781.31979344.71425781.71425781v1.42851563c0 .39446438-.31979343.71425781-.71425781.71425781-.39446437 0-.71425781-.31979343-.71425781-.71425781z" id="element_2e35d032"/>

<path d="m7.14257812 7.14257812c0-.39446437-.31977187-.71425781-.71425781-.71425781-.39446437 0-.71425781.31979344-.71425781.71425781v1.42851563c0 .39446438.31979344.71425781.71425781.71425781.39448594 0 .71425781-.31979343.71425781-.71425781z" id="element_07b13668"/>

</g>

</g>

</g>

</svg>